<?xml version="1.0" standalone="no"?>
<!DOCTYPE svg PUBLIC "-//W3C//DTD SVG 20010904//EN"
 "http://www.w3.org/TR/2001/REC-SVG-20010904/DTD/svg10.dtd">
<svg version="1.0" xmlns="http://www.w3.org/2000/svg"
 width="260.000000pt" height="260.000000pt" viewBox="0 0 260.000000 260.000000"
 preserveAspectRatio="xMidYMid meet">
<metadata>
Created by potrace 1.11, written by Peter Selinger 2001-2013
</metadata>
<g transform="translate(0.000000,260.000000) scale(0.100000,-0.100000)"
fill="#000000" stroke="none">
<path d="M752 2047 l-542 -542 50 -50 50 -49 -52 -53 -52 -53 54 -55 55 -55
-48 -48 -47 -47 542 -542 543 -543 542 542 543 543 -52 52 -52 53 49 50 49 50
-52 53 -52 52 50 50 50 50 -543 543 -542 542 -543 -543z m1070 -22 l518 -521
-40 -39 -40 -40 -483 483 -482 482 -482 -482 -483 -482 -40 39 -40 39 522 523
c288 288 525 522 528 520 3 -1 238 -236 522 -522z m378 -660 l-41 -40 -424
430 -423 430 -436 -435 -436 -435 -45 45 -45 45 472 472 473 473 472 -472 473
-473 -40 -40z m-482 -482 l-423 -423 -417 417 -418 418 422 422 423 423 417
-417 418 -418 -422 -422z m-1340 454 l42 -43 -40 -39 -40 -39 -45 44 -45 44
37 38 c20 21 40 38 43 38 3 0 25 -19 48 -43z m1922 2 l33 -41 -37 -36 -36 -36
-35 34 c-19 19 -35 38 -35 44 0 11 60 76 70 76 4 0 21 -18 40 -41z m-97 -97
l37 -37 -473 -473 -472 -472 -468 468 -467 468 40 39 40 39 428 -427 427 -427
430 430 c236 236 432 430 435 430 3 0 23 -17 43 -38z m105 -105 l42 -42 -523
-523 -522 -522 -523 523 -522 523 38 37 37 37 475 -475 c261 -261 477 -475
480 -475 3 0 222 216 485 480 264 264 482 480 485 480 3 0 25 -19 48 -43z"/>
<path d="M1084 1698 c-53 -17 -125 -80 -157 -136 -38 -68 -47 -157 -23 -230
22 -65 91 -143 154 -173 67 -33 179 -33 240 -1 43 23 45 23 64 5 11 -10 30
-40 43 -68 15 -33 50 -77 103 -127 81 -79 107 -91 157 -72 23 9 46 60 39 88
-8 32 -186 206 -211 206 -10 0 -32 13 -47 29 l-29 30 24 48 c32 65 33 178 3
244 -48 103 -152 169 -264 168 -36 -1 -79 -6 -96 -11z m169 -102 c18 -7 47
-29 64 -49 111 -127 23 -314 -145 -311 -121 3 -209 126 -172 239 15 46 65 104
105 121 39 17 107 17 148 0z"/>
</g>
</svg>
